<?xml version="1.0" standalone="no"?>
<!DOCTYPE svg PUBLIC "-//W3C//DTD SVG 20010904//EN"
 "http://www.w3.org/TR/2001/REC-SVG-20010904/DTD/svg10.dtd">
<svg version="1.0" xmlns="http://www.w3.org/2000/svg"
 width="105.000000pt" height="106.000000pt" viewBox="0 0 105.000000 106.000000"
 preserveAspectRatio="xMidYMid meet">
<metadata>
Created by potrace 1.16, written by Peter Selinger 2001-2019
</metadata>
<g transform="translate(0.000000,106.000000) scale(0.100000,-0.100000)"
fill="#FFFFFF" stroke="none"> <!-- Här ändrade jag fill till #FFFFFF -->
<path d="M40 835 l0 -185 485 0 485 0 0 185 0 185 -485 0 -485 0 0 -185z"/>
<path d="M40 470 l0 -120 485 0 485 0 0 120 0 120 -485 0 -485 0 0 -120z"/>
<path d="M40 225 l0 -65 485 0 485 0 0 65 0 65 -485 0 -485 0 0 -65z"/>
<path d="M40 70 l0 -30 485 0 485 0 0 30 0 30 -485 0 -485 0 0 -30z"/>
</g>
</svg>
